<svg viewBox="0 0 46 46" xmlns="http://www.w3.org/2000/svg" xmlns:xlink="http://www.w3.org/1999/xlink" width="46.000000" height="46.000000" fill="none" customFrame="url(#clipPath_0)">
	<defs>
		<clipPath id="clipPath_0">
			<rect width="46.000000" height="46.000000" x="0.000000" y="0.000000" rx="23.000000" fill="rgb(255,255,255)" />
		</clipPath>
		<clipPath id="clipPath_1">
			<rect width="36.799999" height="36.799999" x="4.600098" y="4.600098" rx="18.400000" fill="rgb(255,255,255)" />
		</clipPath>
	</defs>
	<rect id="Frame 11" width="46.000000" height="46.000000" x="0.000000" y="0.000000" rx="23.000000" fill="rgb(245.82,245.82,245.82)" fill-opacity="0" />
	<rect id="Frame 11" width="44.562500" height="44.562500" x="0.718750" y="0.718750" rx="22.281250" stroke="rgb(255,255,255)" stroke-width="1.437500" />
	<g id="Frame 1171276880" customFrame="url(#clipPath_1)">
		<rect id="Frame 1171276880" width="36.799999" height="36.799999" x="4.600098" y="4.600098" rx="18.400000" />
		<rect id="Rectangle 1241" width="36.799999" height="36.799999" x="4.598145" y="4.601074" rx="18.400000" fill="rgb(233,239,255)" fill-opacity="0" />
		<path id="Checked Box" d="M29.5467 19.3815C30.0153 18.8941 30.0153 18.1039 29.5467 17.6165C29.078 17.1291 28.3182 17.1291 27.8496 17.6165L20.8981 24.8464L18.1467 21.9847C17.678 21.4973 16.9182 21.4973 16.4496 21.9847C15.981 22.4721 15.981 23.2623 16.4496 23.7497L19.6254 27.0527C20.3283 27.7837 21.468 27.7838 22.1709 27.0527L29.5467 19.3815Z" fill="rgb(255,255,255)" fill-rule="nonzero" />
	</g>
</svg>
